<svg width="24" height="24" viewBox="0 0 24 24" fill="none" xmlns="http://www.w3.org/2000/svg">
<path d="M21.5859 6.85714C21.4531 6.72324 21.2951 6.61696 21.121 6.54444C20.9469 6.47191 20.7602 6.43457 20.5716 6.43457C20.383 6.43457 20.1963 6.47191 20.0222 6.54444C19.8481 6.61696 19.6901 6.72324 19.5573 6.85714L12.2573 14.1571C12.224 14.1917 12.184 14.2192 12.1399 14.238C12.0957 14.2568 12.0482 14.2664 12.0002 14.2664C11.9521 14.2664 11.9046 14.2568 11.8605 14.238C11.8163 14.2192 11.7763 14.1917 11.743 14.1571L4.44301 6.85714C4.31021 6.72324 4.15221 6.61696 3.97812 6.54444C3.80404 6.47191 3.61732 6.43457 3.42873 6.43457C3.24014 6.43457 3.05342 6.47191 2.87933 6.54444C2.70525 6.61696 2.54725 6.72324 2.41444 6.85714C2.14837 7.1248 1.99902 7.48687 1.99902 7.86428C1.99902 8.24169 2.14837 8.60376 2.41444 8.87142L10.4859 16.9429C10.8877 17.3441 11.4323 17.5695 12.0002 17.5695C12.568 17.5695 13.1127 17.3441 13.5144 16.9429L21.5859 8.87142C21.8519 8.60376 22.0013 8.24169 22.0013 7.86428C22.0013 7.48687 21.8519 7.1248 21.5859 6.85714Z" fill="#1B1A16"/>
</svg>
